<svg xmlns="http://www.w3.org/2000/svg" xmlns:xlink="http://www.w3.org/1999/xlink" width="500" zoomAndPan="magnify" viewBox="0 0 375 374.999991" height="500" preserveAspectRatio="xMidYMid meet" version="1.0"><defs><clipPath id="9865a605dd"><path d="M 147.75 58 L 301.5 58 L 301.5 337 L 147.75 337 Z M 147.75 58 " clip-rule="nonzero"/></clipPath><clipPath id="1ac39ff4fe"><path d="M 159.914062 59.675781 L 289.664062 59.675781 L 289.664062 315.425781 L 159.914062 315.425781 Z M 159.914062 59.675781 " clip-rule="nonzero"/></clipPath></defs><path fill="#387dde" d="M 101.898438 166.101562 L 59.101562 166.101562 C 41.371094 166.101562 27 151.730469 27 134 L 27 80.5 C 27 50.96875 50.96875 27 80.5 27 C 80.5 27 226.296875 27 294.5 27 C 308.6875 27 322.296875 32.640625 332.335938 42.664062 C 342.359375 52.703125 348 66.3125 348 80.5 C 348 145.535156 348 266.851562 348 315.898438 C 348 324.417969 344.617188 332.582031 338.59375 338.59375 C 332.582031 344.617188 324.417969 348 315.898438 348 C 274.898438 348 185.703125 348 144.699219 348 C 136.183594 348 128.019531 344.617188 122.003906 338.59375 C 115.980469 332.582031 112.601562 324.417969 112.601562 315.898438 L 112.601562 80.5 C 112.601562 62.78125 98.21875 48.398438 80.5 48.398438 C 62.78125 48.398438 48.398438 62.78125 48.398438 80.5 C 48.398438 80.5 48.398438 134 48.398438 134 C 48.398438 139.90625 53.195312 144.699219 59.101562 144.699219 L 101.898438 144.699219 Z M 176.800781 305.199219 L 283.800781 305.199219 C 289.707031 305.199219 294.5 300.40625 294.5 294.5 C 294.5 288.59375 289.707031 283.800781 283.800781 283.800781 L 176.800781 283.800781 C 170.894531 283.800781 166.101562 288.59375 166.101562 294.5 C 166.101562 300.40625 170.894531 305.199219 176.800781 305.199219 Z M 176.800781 262.398438 L 283.800781 262.398438 C 289.707031 262.398438 294.5 257.605469 294.5 251.699219 C 294.5 245.792969 289.707031 241 283.800781 241 L 176.800781 241 C 170.894531 241 166.101562 245.792969 166.101562 251.699219 C 166.101562 257.605469 170.894531 262.398438 176.800781 262.398438 Z M 219.601562 92.785156 C 206.867188 96.6875 198.199219 107.390625 198.199219 119.019531 L 198.199219 124.050781 C 198.199219 135.476562 205.667969 146.371094 218.445312 151.484375 L 234.207031 157.785156 C 238.015625 159.304688 241 161.949219 241 165.351562 L 241 170.378906 C 241 171.835938 240.035156 173.097656 238.753906 174.136719 C 236.515625 175.910156 233.457031 176.800781 230.300781 176.800781 L 230.277344 176.800781 C 227.003906 176.800781 223.996094 175.859375 221.847656 174.136719 C 220.605469 173.140625 219.601562 171.910156 219.601562 170.402344 C 219.601562 164.496094 214.804688 159.703125 208.898438 159.703125 C 202.992188 159.703125 198.199219 164.496094 198.199219 170.402344 C 198.199219 182.023438 206.867188 192.699219 219.601562 196.617188 L 219.601562 208.898438 C 219.601562 214.804688 224.394531 219.601562 230.300781 219.601562 C 236.207031 219.601562 241 214.804688 241 208.898438 L 241 196.617188 C 245.128906 195.355469 248.929688 193.386719 252.117188 190.839844 C 258.859375 185.445312 262.398438 178.007812 262.398438 170.378906 C 262.398438 168.679688 262.398438 166.988281 262.398438 165.351562 C 262.398438 153.921875 254.929688 143.03125 242.15625 137.917969 L 226.394531 131.613281 C 222.585938 130.09375 219.601562 127.453125 219.601562 124.050781 L 219.601562 119.019531 C 219.601562 117.5 220.605469 116.257812 221.847656 115.265625 C 223.996094 113.542969 226.992188 112.601562 230.277344 112.601562 L 230.300781 112.601562 C 233.457031 112.601562 236.515625 113.488281 238.753906 115.265625 C 240.035156 116.300781 241 117.566406 241 119.019531 C 241 124.925781 245.792969 129.71875 251.699219 129.71875 C 257.605469 129.71875 262.398438 124.925781 262.398438 119.019531 C 262.398438 111.390625 258.859375 103.953125 252.117188 98.5625 C 248.929688 96.015625 245.128906 94.046875 241 92.785156 L 241 80.5 C 241 74.59375 236.207031 69.800781 230.300781 69.800781 C 224.394531 69.800781 219.601562 74.59375 219.601562 80.5 Z M 219.601562 92.785156 " fill-opacity="1" fill-rule="evenodd"/><g clip-path="url(#9865a605dd)"><path fill="#387dde" d="M 147.75 58 L 301.5 58 L 301.5 337.273438 L 147.75 337.273438 Z M 147.75 58 " fill-opacity="1" fill-rule="nonzero"/></g><g clip-path="url(#1ac39ff4fe)"><path fill="#ffffff" d="M 215.703125 100.984375 L 220.054688 100.558594 L 220.054688 72.695312 L 220.019531 72.402344 C 220.015625 72.390625 220 71.207031 220.617188 70.503906 C 221.242188 69.800781 222.652344 69.410156 224.589844 69.410156 C 226.375 69.410156 227.746094 69.765625 228.265625 70.351562 C 228.710938 70.863281 228.722656 71.800781 228.6875 72.164062 L 228.625 72.445312 L 228.625 100.289062 L 233.214844 100.507812 C 243.089844 100.972656 251.589844 102.109375 258.488281 103.882812 C 260.824219 104.617188 267.917969 107.671875 267.917969 117.570312 C 267.917969 123.386719 267 125.792969 266.453125 126.710938 C 266.078125 127.339844 265.816406 127.535156 264.921875 127.535156 C 264.433594 127.535156 263.84375 127.453125 263.164062 127.300781 L 260.707031 126.542969 C 260.691406 126.535156 260.671875 126.53125 260.65625 126.523438 L 254.316406 124.027344 L 254.316406 124.292969 C 247.851562 122.265625 241.035156 120.855469 233.964844 120.085938 L 228.625 119.507812 L 228.625 175.542969 L 231.808594 176.691406 C 249.207031 182.96875 261.753906 190.128906 269.09375 197.96875 C 276.191406 205.554688 279.640625 214.492188 279.640625 225.296875 C 279.640625 237.84375 275.800781 247.621094 267.90625 255.183594 C 259.914062 262.835938 248.140625 267.582031 232.910156 269.277344 L 228.625 269.757812 L 228.625 301.105469 C 228.625 301.117188 228.554688 302.460938 227.96875 303.683594 C 227.417969 304.828125 226.632812 305.585938 224.589844 305.585938 C 221.011719 305.585938 220.222656 302.382812 220.054688 300.90625 L 220.054688 270.019531 L 215.257812 270 C 206.558594 269.957031 198.058594 268.847656 190.035156 266.714844 L 188.933594 266.410156 C 182.09375 264.523438 175.019531 262.566406 172.695312 258.347656 C 171.480469 256.140625 171.480469 253.128906 172.695312 249.128906 C 173.5 246.472656 175.25 243.421875 181.660156 243.421875 C 186.410156 243.421875 190.964844 245.15625 191 245.171875 L 199.105469 248.34375 L 198.945312 247.492188 C 204.671875 248.960938 210.019531 249.863281 214.914062 250.191406 L 220.054688 250.535156 L 220.054688 196.625 L 216.910156 195.457031 C 198.332031 188.546875 185.597656 181.113281 179.066406 173.355469 C 172.652344 165.742188 169.53125 156.660156 169.53125 145.585938 C 169.53125 133.757812 173.597656 123.960938 181.960938 115.636719 C 190.339844 107.292969 201.695312 102.363281 215.703125 100.984375 Z M 175.15625 108.800781 C 165.027344 118.886719 159.890625 131.265625 159.890625 145.585938 C 159.890625 158.84375 163.859375 170.273438 171.691406 179.566406 C 179.011719 188.261719 191.695312 196.039062 210.410156 203.300781 L 210.410156 240.011719 C 205.476562 239.28125 200.058594 237.96875 194.242188 236.085938 C 193.835938 235.9375 193.015625 235.65625 191.902344 235.332031 L 187.933594 234.050781 L 187.933594 234.390625 C 186.042969 234.039062 183.886719 233.78125 181.660156 233.78125 C 172.386719 233.78125 165.925781 238.234375 163.464844 246.332031 C 161.488281 252.851562 161.746094 258.460938 164.246094 262.996094 C 168.53125 270.78125 178.007812 273.398438 186.367188 275.703125 L 187.507812 276.019531 C 194.878906 277.980469 202.5625 279.148438 210.410156 279.515625 L 210.410156 301.136719 L 210.425781 301.496094 C 210.835938 307.019531 214.949219 315.230469 224.589844 315.230469 C 234.550781 315.230469 238.226562 306.824219 238.265625 301.136719 L 238.265625 278.296875 C 253.617188 275.957031 265.816406 270.535156 274.574219 262.148438 C 284.335938 252.800781 289.285156 240.402344 289.285156 225.296875 C 289.285156 212.117188 284.859375 200.703125 276.132812 191.378906 C 268.101562 182.800781 255.695312 175.398438 238.265625 168.800781 L 238.265625 130.394531 C 243.757812 131.285156 249.039062 132.621094 254.058594 134.371094 C 254.140625 134.410156 254.226562 134.453125 254.316406 134.492188 L 254.316406 134.542969 L 257.785156 135.753906 L 257.785156 135.75 L 257.882812 135.789062 C 258.007812 135.832031 258.125 135.871094 258.25 135.910156 L 263.960938 137.898438 L 263.960938 137.144531 C 264.285156 137.164062 264.605469 137.179688 264.921875 137.179688 C 269.1875 137.179688 272.582031 135.265625 274.738281 131.648438 C 276.664062 128.417969 277.558594 123.945312 277.558594 117.570312 C 277.558594 104.320312 268.753906 96.929688 261.210938 94.628906 L 261.011719 94.574219 C 254.570312 92.910156 246.9375 91.761719 238.265625 91.144531 L 238.265625 73.300781 C 238.433594 71.777344 238.5625 67.640625 235.6875 64.195312 C 234 62.175781 230.707031 59.765625 224.589844 59.765625 C 218.519531 59.765625 215.152344 62.132812 213.398438 64.113281 C 210.320312 67.59375 210.320312 71.824219 210.410156 73.183594 L 210.410156 91.929688 C 196.09375 94.089844 184.25 99.75 175.15625 108.800781 " fill-opacity="1" fill-rule="nonzero"/></g><path fill="#ffffff" d="M 210.410156 131.730469 L 210.410156 156.417969 C 209.765625 155.9375 209.160156 155.445312 208.597656 154.953125 C 204.652344 151.484375 202.714844 147.683594 202.714844 143.464844 C 202.714844 139.335938 203.714844 134.535156 210.410156 131.730469 Z M 213.089844 169.242188 L 220.054688 172.699219 L 220.054688 119.613281 L 214.378906 120.632812 C 196.765625 123.804688 193.070312 134.800781 193.070312 143.464844 C 193.070312 144.453125 193.128906 145.417969 193.25 146.375 C 194.390625 155.582031 201.050781 163.265625 213.089844 169.242188 " fill-opacity="1" fill-rule="nonzero"/><path fill="#ffffff" d="M 238.265625 215.035156 C 246.460938 220.308594 246.460938 225.207031 246.460938 227.042969 C 246.460938 231.234375 245.402344 236.101562 238.265625 238.742188 Z M 256.105469 227.042969 C 256.105469 223.535156 255.277344 220.261719 253.636719 217.234375 C 250.503906 211.457031 244.394531 206.578125 235.363281 202.660156 L 228.625 199.738281 L 228.625 250.5 L 234.175781 249.644531 C 253.253906 246.714844 256.105469 234.226562 256.105469 227.042969 " fill-opacity="1" fill-rule="nonzero"/></svg>